<svg width="520" height="421" viewBox="0 0 520 421" fill="none" xmlns="http://www.w3.org/2000/svg">
<g id="Frame 1">
<g id="group3">
<rect id="rectangle1" x="64" y="80" width="88" height="91" fill="black"/>
</g>
<g id="group2">
<ellipse id="ellipse1" cx="195" cy="264.5" rx="59" ry="54.5" fill="black"/>
</g>
<g id="group1">
<path id="arrow1" d="M271.253 293.336C270.886 293.748 270.923 294.38 271.336 294.747L278.062 300.727C278.475 301.094 279.107 301.056 279.474 300.644C279.841 300.231 279.804 299.599 279.391 299.232L273.412 293.917L278.727 287.938C279.094 287.525 279.056 286.893 278.644 286.526C278.231 286.159 277.599 286.196 277.232 286.609L271.253 293.336ZM390.941 286.002L271.941 293.002L272.059 294.998L391.059 287.998L390.941 286.002Z" fill="black"/>
</g>
</g>
</svg>
